<mxfile host="app.diagrams.net" modified="2024-06-18T14:36:43.567Z" agent="Mozilla/5.0 (Windows NT 10.0; Win64; x64) AppleWebKit/537.36 (KHTML, like Gecko) Chrome/126.0.0.0 Safari/537.36" etag="CVu6TY5bqcwsjEUccPEz" version="24.5.2" type="device">
  <diagram name="Page-1" id="e7e014a7-5840-1c2e-5031-d8a46d1fe8dd">
    <mxGraphModel dx="880" dy="460" grid="1" gridSize="10" guides="1" tooltips="1" connect="1" arrows="1" fold="1" page="1" pageScale="1" pageWidth="1169" pageHeight="826" background="none" math="0" shadow="0">
      <root>
        <mxCell id="0" />
        <mxCell id="1" parent="0" />
        <mxCell id="5YHIYgK-tF7wcLc3HEWD-41" value="Administrador" style="swimlane;whiteSpace=wrap;fillColor=#ffe6cc;strokeColor=#d79b00;" parent="1" vertex="1">
          <mxGeometry x="150" y="12" width="300" height="802" as="geometry" />
        </mxCell>
        <mxCell id="5YHIYgK-tF7wcLc3HEWD-78" style="edgeStyle=orthogonalEdgeStyle;rounded=0;hachureGap=4;orthogonalLoop=1;jettySize=auto;html=1;exitX=0.5;exitY=1;exitDx=0;exitDy=0;entryX=0.5;entryY=0;entryDx=0;entryDy=0;fontFamily=Architects Daughter;fontSource=https%3A%2F%2Ffonts.googleapis.com%2Fcss%3Ffamily%3DArchitects%2BDaughter;" parent="5YHIYgK-tF7wcLc3HEWD-41" source="5YHIYgK-tF7wcLc3HEWD-42" target="5YHIYgK-tF7wcLc3HEWD-43" edge="1">
          <mxGeometry relative="1" as="geometry" />
        </mxCell>
        <mxCell id="5YHIYgK-tF7wcLc3HEWD-42" value="" style="ellipse;shape=startState;fillColor=#000000;strokeColor=#ff0000;" parent="5YHIYgK-tF7wcLc3HEWD-41" vertex="1">
          <mxGeometry x="125" y="32" width="30" height="30" as="geometry" />
        </mxCell>
        <mxCell id="5YHIYgK-tF7wcLc3HEWD-43" value="Inicia la sesión en el sistema" style="" parent="5YHIYgK-tF7wcLc3HEWD-41" vertex="1">
          <mxGeometry x="51.44" y="95" width="175.5" height="22" as="geometry" />
        </mxCell>
        <mxCell id="5YHIYgK-tF7wcLc3HEWD-74" style="edgeStyle=orthogonalEdgeStyle;rounded=0;hachureGap=4;orthogonalLoop=1;jettySize=auto;html=1;exitX=0.5;exitY=1;exitDx=0;exitDy=0;entryX=0.5;entryY=0;entryDx=0;entryDy=0;fontFamily=Architects Daughter;fontSource=https%3A%2F%2Ffonts.googleapis.com%2Fcss%3Ffamily%3DArchitects%2BDaughter;" parent="5YHIYgK-tF7wcLc3HEWD-41" source="5YHIYgK-tF7wcLc3HEWD-44" target="5YHIYgK-tF7wcLc3HEWD-53" edge="1">
          <mxGeometry relative="1" as="geometry" />
        </mxCell>
        <mxCell id="5YHIYgK-tF7wcLc3HEWD-44" value="Navega al módulo de &#xa;gestión de roles " style="" parent="5YHIYgK-tF7wcLc3HEWD-41" vertex="1">
          <mxGeometry x="73.07" y="242" width="153.87" height="28" as="geometry" />
        </mxCell>
        <mxCell id="5YHIYgK-tF7wcLc3HEWD-75" style="edgeStyle=orthogonalEdgeStyle;rounded=0;hachureGap=4;orthogonalLoop=1;jettySize=auto;html=1;exitX=0.5;exitY=1;exitDx=0;exitDy=0;entryX=0.5;entryY=0;entryDx=0;entryDy=0;fontFamily=Architects Daughter;fontSource=https%3A%2F%2Ffonts.googleapis.com%2Fcss%3Ffamily%3DArchitects%2BDaughter;" parent="5YHIYgK-tF7wcLc3HEWD-41" source="5YHIYgK-tF7wcLc3HEWD-53" target="5YHIYgK-tF7wcLc3HEWD-54" edge="1">
          <mxGeometry relative="1" as="geometry" />
        </mxCell>
        <mxCell id="5YHIYgK-tF7wcLc3HEWD-53" value="Selecciona usuarios" style="" parent="5YHIYgK-tF7wcLc3HEWD-41" vertex="1">
          <mxGeometry x="73.07" y="312" width="153.87" height="28" as="geometry" />
        </mxCell>
        <mxCell id="5YHIYgK-tF7wcLc3HEWD-54" value="Modifica el rol del&#xa;usuario" style="" parent="5YHIYgK-tF7wcLc3HEWD-41" vertex="1">
          <mxGeometry x="73.07" y="382" width="153.87" height="28" as="geometry" />
        </mxCell>
        <mxCell id="5YHIYgK-tF7wcLc3HEWD-45" value="Módulo de usuarios" style="swimlane;whiteSpace=wrap;fillColor=#f8cecc;strokeColor=#b85450;" parent="1" vertex="1">
          <mxGeometry x="450" y="12" width="570" height="802" as="geometry" />
        </mxCell>
        <mxCell id="5YHIYgK-tF7wcLc3HEWD-76" style="edgeStyle=orthogonalEdgeStyle;rounded=0;hachureGap=4;orthogonalLoop=1;jettySize=auto;html=1;exitX=0.5;exitY=1;exitDx=0;exitDy=0;entryX=0.5;entryY=0;entryDx=0;entryDy=0;fontFamily=Architects Daughter;fontSource=https%3A%2F%2Ffonts.googleapis.com%2Fcss%3Ffamily%3DArchitects%2BDaughter;" parent="5YHIYgK-tF7wcLc3HEWD-45" source="5YHIYgK-tF7wcLc3HEWD-46" target="5YHIYgK-tF7wcLc3HEWD-47" edge="1">
          <mxGeometry relative="1" as="geometry" />
        </mxCell>
        <mxCell id="5YHIYgK-tF7wcLc3HEWD-46" value="Verifica credenciales" style="" parent="5YHIYgK-tF7wcLc3HEWD-45" vertex="1">
          <mxGeometry x="216.87" y="92" width="153.87" height="28" as="geometry" />
        </mxCell>
        <mxCell id="5YHIYgK-tF7wcLc3HEWD-58" style="edgeStyle=orthogonalEdgeStyle;rounded=0;hachureGap=4;orthogonalLoop=1;jettySize=auto;html=1;exitX=1;exitY=0.5;exitDx=0;exitDy=0;entryX=0;entryY=0.5;entryDx=0;entryDy=0;fontFamily=Architects Daughter;fontSource=https%3A%2F%2Ffonts.googleapis.com%2Fcss%3Ffamily%3DArchitects%2BDaughter;" parent="5YHIYgK-tF7wcLc3HEWD-45" source="5YHIYgK-tF7wcLc3HEWD-47" target="5YHIYgK-tF7wcLc3HEWD-49" edge="1">
          <mxGeometry relative="1" as="geometry" />
        </mxCell>
        <mxCell id="5YHIYgK-tF7wcLc3HEWD-59" value="NO" style="edgeLabel;html=1;align=center;verticalAlign=middle;resizable=0;points=[];sketch=1;hachureGap=4;jiggle=2;curveFitting=1;fontFamily=Architects Daughter;fontSource=https%3A%2F%2Ffonts.googleapis.com%2Fcss%3Ffamily%3DArchitects%2BDaughter;" parent="5YHIYgK-tF7wcLc3HEWD-58" vertex="1" connectable="0">
          <mxGeometry x="0.0568" relative="1" as="geometry">
            <mxPoint as="offset" />
          </mxGeometry>
        </mxCell>
        <mxCell id="5YHIYgK-tF7wcLc3HEWD-47" value="Credenciales&#xa;válidas" style="rhombus;fillColor=#ffffc0;strokeColor=#ff0000;" parent="5YHIYgK-tF7wcLc3HEWD-45" vertex="1">
          <mxGeometry x="244.06" y="222" width="99.5" height="68" as="geometry" />
        </mxCell>
        <mxCell id="JEuo251Weq-t2hrkJlOb-1" style="edgeStyle=orthogonalEdgeStyle;rounded=0;hachureGap=4;orthogonalLoop=1;jettySize=auto;html=1;exitX=0.5;exitY=0;exitDx=0;exitDy=0;entryX=1;entryY=0.5;entryDx=0;entryDy=0;fontFamily=Architects Daughter;fontSource=https%3A%2F%2Ffonts.googleapis.com%2Fcss%3Ffamily%3DArchitects%2BDaughter;" edge="1" parent="5YHIYgK-tF7wcLc3HEWD-45" source="5YHIYgK-tF7wcLc3HEWD-49" target="5YHIYgK-tF7wcLc3HEWD-46">
          <mxGeometry relative="1" as="geometry" />
        </mxCell>
        <mxCell id="5YHIYgK-tF7wcLc3HEWD-49" value="Muestra error en la &#xa;autenticación" style="" parent="5YHIYgK-tF7wcLc3HEWD-45" vertex="1">
          <mxGeometry x="415" y="237" width="153.87" height="28" as="geometry" />
        </mxCell>
        <mxCell id="5YHIYgK-tF7wcLc3HEWD-52" value="" style="ellipse;shape=endState;fillColor=#000000;strokeColor=#ff0000" parent="5YHIYgK-tF7wcLc3HEWD-45" vertex="1">
          <mxGeometry x="287.5" y="752" width="30" height="30" as="geometry" />
        </mxCell>
        <mxCell id="5YHIYgK-tF7wcLc3HEWD-63" style="edgeStyle=orthogonalEdgeStyle;rounded=0;hachureGap=4;orthogonalLoop=1;jettySize=auto;html=1;exitX=1;exitY=0.5;exitDx=0;exitDy=0;entryX=0.5;entryY=0;entryDx=0;entryDy=0;fontFamily=Architects Daughter;fontSource=https%3A%2F%2Ffonts.googleapis.com%2Fcss%3Ffamily%3DArchitects%2BDaughter;" parent="5YHIYgK-tF7wcLc3HEWD-45" source="5YHIYgK-tF7wcLc3HEWD-55" target="5YHIYgK-tF7wcLc3HEWD-62" edge="1">
          <mxGeometry relative="1" as="geometry" />
        </mxCell>
        <mxCell id="5YHIYgK-tF7wcLc3HEWD-55" value="Verifica la compatibilidad &#xa;del rol" style="" parent="5YHIYgK-tF7wcLc3HEWD-45" vertex="1">
          <mxGeometry x="115" y="382" width="153.87" height="28" as="geometry" />
        </mxCell>
        <mxCell id="5YHIYgK-tF7wcLc3HEWD-68" style="edgeStyle=orthogonalEdgeStyle;rounded=0;hachureGap=4;orthogonalLoop=1;jettySize=auto;html=1;exitX=0;exitY=0.5;exitDx=0;exitDy=0;entryX=0.5;entryY=0;entryDx=0;entryDy=0;fontFamily=Architects Daughter;fontSource=https%3A%2F%2Ffonts.googleapis.com%2Fcss%3Ffamily%3DArchitects%2BDaughter;" parent="5YHIYgK-tF7wcLc3HEWD-45" source="5YHIYgK-tF7wcLc3HEWD-62" target="5YHIYgK-tF7wcLc3HEWD-64" edge="1">
          <mxGeometry relative="1" as="geometry" />
        </mxCell>
        <mxCell id="5YHIYgK-tF7wcLc3HEWD-69" value="SI" style="edgeLabel;html=1;align=center;verticalAlign=middle;resizable=0;points=[];sketch=1;hachureGap=4;jiggle=2;curveFitting=1;fontFamily=Architects Daughter;fontSource=https%3A%2F%2Ffonts.googleapis.com%2Fcss%3Ffamily%3DArchitects%2BDaughter;" parent="5YHIYgK-tF7wcLc3HEWD-68" vertex="1" connectable="0">
          <mxGeometry x="-0.1946" y="3" relative="1" as="geometry">
            <mxPoint as="offset" />
          </mxGeometry>
        </mxCell>
        <mxCell id="5YHIYgK-tF7wcLc3HEWD-70" style="edgeStyle=orthogonalEdgeStyle;rounded=0;hachureGap=4;orthogonalLoop=1;jettySize=auto;html=1;exitX=1;exitY=0.5;exitDx=0;exitDy=0;entryX=0.5;entryY=0;entryDx=0;entryDy=0;fontFamily=Architects Daughter;fontSource=https%3A%2F%2Ffonts.googleapis.com%2Fcss%3Ffamily%3DArchitects%2BDaughter;" parent="5YHIYgK-tF7wcLc3HEWD-45" source="5YHIYgK-tF7wcLc3HEWD-62" target="5YHIYgK-tF7wcLc3HEWD-65" edge="1">
          <mxGeometry relative="1" as="geometry" />
        </mxCell>
        <mxCell id="5YHIYgK-tF7wcLc3HEWD-71" value="NO" style="edgeLabel;html=1;align=center;verticalAlign=middle;resizable=0;points=[];sketch=1;hachureGap=4;jiggle=2;curveFitting=1;fontFamily=Architects Daughter;fontSource=https%3A%2F%2Ffonts.googleapis.com%2Fcss%3Ffamily%3DArchitects%2BDaughter;" parent="5YHIYgK-tF7wcLc3HEWD-70" vertex="1" connectable="0">
          <mxGeometry x="-0.2804" relative="1" as="geometry">
            <mxPoint as="offset" />
          </mxGeometry>
        </mxCell>
        <mxCell id="5YHIYgK-tF7wcLc3HEWD-62" value="Credenciales&#xa;válidas" style="rhombus;fillColor=#ffffc0;strokeColor=#ff0000;" parent="5YHIYgK-tF7wcLc3HEWD-45" vertex="1">
          <mxGeometry x="244.04999999999995" y="452" width="99.5" height="68" as="geometry" />
        </mxCell>
        <mxCell id="5YHIYgK-tF7wcLc3HEWD-72" style="edgeStyle=orthogonalEdgeStyle;rounded=0;hachureGap=4;orthogonalLoop=1;jettySize=auto;html=1;exitX=0.5;exitY=1;exitDx=0;exitDy=0;entryX=0.5;entryY=0;entryDx=0;entryDy=0;fontFamily=Architects Daughter;fontSource=https%3A%2F%2Ffonts.googleapis.com%2Fcss%3Ffamily%3DArchitects%2BDaughter;" parent="5YHIYgK-tF7wcLc3HEWD-45" source="5YHIYgK-tF7wcLc3HEWD-64" target="5YHIYgK-tF7wcLc3HEWD-66" edge="1">
          <mxGeometry relative="1" as="geometry" />
        </mxCell>
        <mxCell id="5YHIYgK-tF7wcLc3HEWD-64" value="Actualiza el rol &#xa;de usuario" style="" parent="5YHIYgK-tF7wcLc3HEWD-45" vertex="1">
          <mxGeometry x="63" y="542" width="153.87" height="28" as="geometry" />
        </mxCell>
        <mxCell id="JEuo251Weq-t2hrkJlOb-2" style="edgeStyle=orthogonalEdgeStyle;rounded=0;hachureGap=4;orthogonalLoop=1;jettySize=auto;html=1;exitX=0.5;exitY=1;exitDx=0;exitDy=0;entryX=1;entryY=0.5;entryDx=0;entryDy=0;fontFamily=Architects Daughter;fontSource=https%3A%2F%2Ffonts.googleapis.com%2Fcss%3Ffamily%3DArchitects%2BDaughter;" edge="1" parent="5YHIYgK-tF7wcLc3HEWD-45" source="5YHIYgK-tF7wcLc3HEWD-65" target="5YHIYgK-tF7wcLc3HEWD-52">
          <mxGeometry relative="1" as="geometry" />
        </mxCell>
        <mxCell id="5YHIYgK-tF7wcLc3HEWD-65" value="Muestra error de &#xa;compatibilidad" style="" parent="5YHIYgK-tF7wcLc3HEWD-45" vertex="1">
          <mxGeometry x="405" y="542" width="153.87" height="28" as="geometry" />
        </mxCell>
        <mxCell id="5YHIYgK-tF7wcLc3HEWD-66" value="Muestra el mensaje&#xa;de confirmación" style="" parent="5YHIYgK-tF7wcLc3HEWD-45" vertex="1">
          <mxGeometry x="63" y="632" width="153.87" height="28" as="geometry" />
        </mxCell>
        <mxCell id="5YHIYgK-tF7wcLc3HEWD-67" style="edgeStyle=orthogonalEdgeStyle;rounded=0;hachureGap=4;orthogonalLoop=1;jettySize=auto;html=1;exitX=0.5;exitY=1;exitDx=0;exitDy=0;entryX=0.489;entryY=0.232;entryDx=0;entryDy=0;entryPerimeter=0;fontFamily=Architects Daughter;fontSource=https%3A%2F%2Ffonts.googleapis.com%2Fcss%3Ffamily%3DArchitects%2BDaughter;" parent="5YHIYgK-tF7wcLc3HEWD-45" source="5YHIYgK-tF7wcLc3HEWD-66" target="5YHIYgK-tF7wcLc3HEWD-52" edge="1">
          <mxGeometry relative="1" as="geometry" />
        </mxCell>
        <mxCell id="5YHIYgK-tF7wcLc3HEWD-56" style="edgeStyle=orthogonalEdgeStyle;rounded=0;hachureGap=4;orthogonalLoop=1;jettySize=auto;html=1;exitX=1;exitY=0.5;exitDx=0;exitDy=0;entryX=0;entryY=0.5;entryDx=0;entryDy=0;fontFamily=Architects Daughter;fontSource=https%3A%2F%2Ffonts.googleapis.com%2Fcss%3Ffamily%3DArchitects%2BDaughter;" parent="1" source="5YHIYgK-tF7wcLc3HEWD-54" target="5YHIYgK-tF7wcLc3HEWD-55" edge="1">
          <mxGeometry relative="1" as="geometry" />
        </mxCell>
        <mxCell id="5YHIYgK-tF7wcLc3HEWD-60" style="edgeStyle=orthogonalEdgeStyle;rounded=0;hachureGap=4;orthogonalLoop=1;jettySize=auto;html=1;exitX=0;exitY=0.5;exitDx=0;exitDy=0;entryX=1;entryY=0.5;entryDx=0;entryDy=0;fontFamily=Architects Daughter;fontSource=https%3A%2F%2Ffonts.googleapis.com%2Fcss%3Ffamily%3DArchitects%2BDaughter;" parent="1" source="5YHIYgK-tF7wcLc3HEWD-47" target="5YHIYgK-tF7wcLc3HEWD-44" edge="1">
          <mxGeometry relative="1" as="geometry" />
        </mxCell>
        <mxCell id="5YHIYgK-tF7wcLc3HEWD-61" value="SI" style="edgeLabel;html=1;align=center;verticalAlign=middle;resizable=0;points=[];sketch=1;hachureGap=4;jiggle=2;curveFitting=1;fontFamily=Architects Daughter;fontSource=https%3A%2F%2Ffonts.googleapis.com%2Fcss%3Ffamily%3DArchitects%2BDaughter;" parent="5YHIYgK-tF7wcLc3HEWD-60" vertex="1" connectable="0">
          <mxGeometry x="0.0683" y="-2" relative="1" as="geometry">
            <mxPoint as="offset" />
          </mxGeometry>
        </mxCell>
        <mxCell id="5YHIYgK-tF7wcLc3HEWD-77" style="edgeStyle=orthogonalEdgeStyle;rounded=0;hachureGap=4;orthogonalLoop=1;jettySize=auto;html=1;exitX=1;exitY=0.5;exitDx=0;exitDy=0;entryX=0;entryY=0.5;entryDx=0;entryDy=0;fontFamily=Architects Daughter;fontSource=https%3A%2F%2Ffonts.googleapis.com%2Fcss%3Ffamily%3DArchitects%2BDaughter;" parent="1" source="5YHIYgK-tF7wcLc3HEWD-43" target="5YHIYgK-tF7wcLc3HEWD-46" edge="1">
          <mxGeometry relative="1" as="geometry" />
        </mxCell>
      </root>
    </mxGraphModel>
  </diagram>
</mxfile>
